#VRML V2.0 utf8
# Render-only stand-in for an 18 x 35 mm radial electrolytic (not in the KiCad 7 3D library here)
# origin at pad 1 (+); the can is centred between the pads (7.5 mm pitch)
Shape { appearance Appearance { material Material { diffuseColor 0.10 0.30 0.70 specularColor 0.3 0.3 0.4 shininess 0.4 } }
  geometry IndexedFaceSet { solid FALSE coord Coordinate { point [ 5.0197 0.0000 0.0200, 4.9516 0.6913 0.0200, 4.7500 1.3560 0.0200, 4.4225 1.9686 0.0200, 3.9819 2.5055 0.0200, 3.4449 2.9462 0.0200, 2.8323 3.2736 0.0200, 2.1676 3.4752 0.0200, 1.4764 3.5433 0.0200, 0.7851 3.4752 0.0200, 0.1204 3.2736 0.0200, -0.4922 2.9462 0.0200, -1.0291 2.5055 0.0200, -1.4698 1.9686 0.0200, -1.7972 1.3560 0.0200, -1.9988 0.6913 0.0200, -2.0669 0.0000 0.0200, -1.9988 -0.6913 0.0200, -1.7972 -1.3560 0.0200, -1.4698 -1.9686 0.0200, -1.0291 -2.5055 0.0200, -0.4922 -2.9462 0.0200, 0.1204 -3.2736 0.0200, 0.7851 -3.4752 0.0200, 1.4764 -3.5433 0.0200, 2.1676 -3.4752 0.0200, 2.8323 -3.2736 0.0200, 3.4449 -2.9462 0.0200, 3.9819 -2.5055 0.0200, 4.4225 -1.9686 0.0200, 4.7500 -1.3560 0.0200, 4.9516 -0.6913 0.0200, 5.0197 0.0000 13.7795, 4.9516 0.6913 13.7795, 4.7500 1.3560 13.7795, 4.4225 1.9686 13.7795, 3.9819 2.5055 13.7795, 3.4449 2.9462 13.7795, 2.8323 3.2736 13.7795, 2.1676 3.4752 13.7795, 1.4764 3.5433 13.7795, 0.7851 3.4752 13.7795, 0.1204 3.2736 13.7795, -0.4922 2.9462 13.7795, -1.0291 2.5055 13.7795, -1.4698 1.9686 13.7795, -1.7972 1.3560 13.7795, -1.9988 0.6913 13.7795, -2.0669 0.0000 13.7795, -1.9988 -0.6913 13.7795, -1.7972 -1.3560 13.7795, -1.4698 -1.9686 13.7795, -1.0291 -2.5055 13.7795, -0.4922 -2.9462 13.7795, 0.1204 -3.2736 13.7795, 0.7851 -3.4752 13.7795, 1.4764 -3.5433 13.7795, 2.1676 -3.4752 13.7795, 2.8323 -3.2736 13.7795, 3.4449 -2.9462 13.7795, 3.9819 -2.5055 13.7795, 4.4225 -1.9686 13.7795, 4.7500 -1.3560 13.7795, 4.9516 -0.6913 13.7795 ] } coordIndex [ 0 1 33 32 -1, 1 2 34 33 -1, 2 3 35 34 -1, 3 4 36 35 -1, 4 5 37 36 -1, 5 6 38 37 -1, 6 7 39 38 -1, 7 8 40 39 -1, 8 9 41 40 -1, 9 10 42 41 -1, 10 11 43 42 -1, 11 12 44 43 -1, 12 13 45 44 -1, 13 14 46 45 -1, 14 15 47 46 -1, 15 16 48 47 -1, 16 17 49 48 -1, 17 18 50 49 -1, 18 19 51 50 -1, 19 20 52 51 -1, 20 21 53 52 -1, 21 22 54 53 -1, 22 23 55 54 -1, 23 24 56 55 -1, 24 25 57 56 -1, 25 26 58 57 -1, 26 27 59 58 -1, 27 28 60 59 -1, 28 29 61 60 -1, 29 30 62 61 -1, 30 31 63 62 -1, 31 0 32 63 -1, 31 30 29 28 27 26 25 24 23 22 21 20 19 18 17 16 15 14 13 12 11 10 9 8 7 6 5 4 3 2 1 0 -1, 32 33 34 35 36 37 38 39 40 41 42 43 44 45 46 47 48 49 50 51 52 53 54 55 56 57 58 59 60 61 62 63 -1 ] } }
Shape { appearance Appearance { material Material { diffuseColor 0.78 0.79 0.80 specularColor 0.6 0.6 0.6 shininess 0.6 } }
  geometry IndexedFaceSet { solid FALSE coord Coordinate { point [ 4.8622 0.0000 13.7795, 4.7971 0.6605 13.7795, 4.6045 1.2957 13.7795, 4.2916 1.8811 13.7795, 3.8705 2.3941 13.7795, 3.3574 2.8152 13.7795, 2.7721 3.1281 13.7795, 2.1369 3.3208 13.7795, 1.4764 3.3858 13.7795, 0.8158 3.3208 13.7795, 0.1807 3.1281 13.7795, -0.4047 2.8152 13.7795, -0.9178 2.3941 13.7795, -1.3388 1.8811 13.7795, -1.6517 1.2957 13.7795, -1.8444 0.6605 13.7795, -1.9094 0.0000 13.7795, -1.8444 -0.6605 13.7795, -1.6517 -1.2957 13.7795, -1.3388 -1.8811 13.7795, -0.9178 -2.3941 13.7795, -0.4047 -2.8152 13.7795, 0.1807 -3.1281 13.7795, 0.8158 -3.3208 13.7795, 1.4764 -3.3858 13.7795, 2.1369 -3.3208 13.7795, 2.7721 -3.1281 13.7795, 3.3574 -2.8152 13.7795, 3.8705 -2.3941 13.7795, 4.2916 -1.8811 13.7795, 4.6045 -1.2957 13.7795, 4.7971 -0.6605 13.7795, 4.8622 0.0000 13.7895, 4.7971 0.6605 13.7895, 4.6045 1.2957 13.7895, 4.2916 1.8811 13.7895, 3.8705 2.3941 13.7895, 3.3574 2.8152 13.7895, 2.7721 3.1281 13.7895, 2.1369 3.3208 13.7895, 1.4764 3.3858 13.7895, 0.8158 3.3208 13.7895, 0.1807 3.1281 13.7895, -0.4047 2.8152 13.7895, -0.9178 2.3941 13.7895, -1.3388 1.8811 13.7895, -1.6517 1.2957 13.7895, -1.8444 0.6605 13.7895, -1.9094 0.0000 13.7895, -1.8444 -0.6605 13.7895, -1.6517 -1.2957 13.7895, -1.3388 -1.8811 13.7895, -0.9178 -2.3941 13.7895, -0.4047 -2.8152 13.7895, 0.1807 -3.1281 13.7895, 0.8158 -3.3208 13.7895, 1.4764 -3.3858 13.7895, 2.1369 -3.3208 13.7895, 2.7721 -3.1281 13.7895, 3.3574 -2.8152 13.7895, 3.8705 -2.3941 13.7895, 4.2916 -1.8811 13.7895, 4.6045 -1.2957 13.7895, 4.7971 -0.6605 13.7895 ] } coordIndex [ 0 1 33 32 -1, 1 2 34 33 -1, 2 3 35 34 -1, 3 4 36 35 -1, 4 5 37 36 -1, 5 6 38 37 -1, 6 7 39 38 -1, 7 8 40 39 -1, 8 9 41 40 -1, 9 10 42 41 -1, 10 11 43 42 -1, 11 12 44 43 -1, 12 13 45 44 -1, 13 14 46 45 -1, 14 15 47 46 -1, 15 16 48 47 -1, 16 17 49 48 -1, 17 18 50 49 -1, 18 19 51 50 -1, 19 20 52 51 -1, 20 21 53 52 -1, 21 22 54 53 -1, 22 23 55 54 -1, 23 24 56 55 -1, 24 25 57 56 -1, 25 26 58 57 -1, 26 27 59 58 -1, 27 28 60 59 -1, 28 29 61 60 -1, 29 30 62 61 -1, 30 31 63 62 -1, 31 0 32 63 -1, 31 30 29 28 27 26 25 24 23 22 21 20 19 18 17 16 15 14 13 12 11 10 9 8 7 6 5 4 3 2 1 0 -1, 32 33 34 35 36 37 38 39 40 41 42 43 44 45 46 47 48 49 50 51 52 53 54 55 56 57 58 59 60 61 62 63 -1 ] } }
Shape { appearance Appearance { material Material { diffuseColor 0.82 0.84 0.86  } }
  geometry IndexedFaceSet { solid FALSE coord Coordinate { point [ 5.0247 -0.4724 0.3000, 5.0247 0.4724 0.3000, 5.0247 0.4724 13.4795, 5.0247 -0.4724 13.4795 ] } coordIndex [ 0 1 2 3 -1 ] } }
